# xmcd
#
# Track frame offsets:
#	150
#	17042
#	26615
#	50858
#	69744
#	85971
#	99294
#	108666
#	120858
#	135628
#	161986
#	179671
#	187775
#
# Disc length: 2733 seconds
#
# Revision: 1
# Processed by: cddbd v1.4PL0 Copyright (c) Steve Scherf et al.
# Submitted via: audiograbber 1.82.01
#
DISCID=b00aab0d
DTITLE=Guy Roel - Blues Voyage
DYEAR=1996
DGENRE=Blues
TTITLE0=Roll and Tumble
TTITLE1=Lucky Charm
TTITLE2=Little Red Rooster
TTITLE3=Celtic Kebab
TTITLE4=Ain't Misbehavin
TTITLE5=Wine Sweet Wine
TTITLE6=Pride and Joy
TTITLE7=Mary Jo
TTITLE8=Shame Shame Shame
TTITLE9=Hansi Stomp
TTITLE10=Too Lazy
TTITLE11=Too Much
TTITLE12=I Got Ramblin
EXTD=
EXTT0=
EXTT1=
EXTT2=
EXTT3=
EXTT4=
EXTT5=
EXTT6=
EXTT7=
EXTT8=
EXTT9=
EXTT10=
EXTT11=
EXTT12=
PLAYORDER=
